<?xml version="1.0" encoding="UTF-8"?>
<svg id="Layer_2" xmlns="http://www.w3.org/2000/svg" viewBox="0 0 624.78 124.03">
  <defs>
    <style>
      .cls-1 {
        fill: #ed1e3e;
      }

      .cls-2 {
        fill: #fff;
      }
    </style>
  </defs>
  <g id="Layer_1-2" data-name="Layer_1">
    <g>
      <g id="Group_359" fill="white">
        <path id="Path_292" d="M115.31,28.22h26.67v47.4c0,13,6.05,17.15,18.27,17.15s18.27-4.15,18.27-17.15V28.22h26.67v51.77c0,22.08-16.59,30.71-44.94,30.71s-44.94-8.63-44.94-30.71V28.22Z"/>
        <path id="Path_293" d="M209.56,28.22h66.24c19.39,0,22.75,11.99,22.75,19.72s-4.15,14.01-9.86,16.14v.23c8.4,1.9,13.9,8.74,13.9,20.06,0,9.53-4.48,23.87-29.03,23.87h-64V28.22ZM236.24,59.04h26.56c5.72,0,8.18-3.14,8.18-6.84s-2.46-6.73-8.18-6.73h-26.56v13.56ZM264.93,90.98c5.6,0,9.41-3.03,9.41-8.29s-3.81-7.96-9.41-7.96h-28.7v16.25h28.7Z"/>
        <rect id="Rectangle_132" x="307.28" y="28.21" width="26.68" height="80.02"/>
        <path id="Path_294" d="M438.86,77.41c-3.25,17.26-12.78,33.29-50.66,33.29-33.85,0-50.32-14.91-50.32-42.48s15.58-42.48,50.32-42.48c24.43,0,44.61,5.6,50.42,33.29h-29.7c-1.57-5.72-5.49-15.35-20.62-15.35-16.7,0-22.19,11.32-22.19,24.55s4.94,24.54,22.2,24.54c11.99,0,19.17-6.05,20.96-15.35h29.59Z"/>
        <path id="Path_295" d="M466.2,28.22h32.62l34.41,80.02h-28.59l-4.82-13h-34.97l-4.82,13h-28.58l34.75-80.03ZM482.45,48.39h-.23l-11.1,30.25h22.42l-11.1-30.25Z"/>
        <path id="Path_296" d="M531.98,28.22h64.11c19.61,0,26.79,8.97,26.79,22.31,0,10.65-5.6,16.47-12.78,18.27v.23c5.04,1.68,8.97,5.72,9.63,14.35,1.23,15.8,1.68,20.85,5.04,24.88h-29.25c-1.25-3.83-1.78-7.86-1.57-11.89,0-12.55-4.15-14.79-10.86-14.79h-24.43v26.67h-26.68V28.22ZM558.66,63.64h25.67c6.5,0,9.98-3.36,9.98-8.85s-3.48-8.63-9.98-8.63h-25.67v17.48Z"/>
      </g>
      <g>
        <ellipse class="cls-1" cx="44.21" cy="108.23" rx="44.21" ry="15.8"/>
        <ellipse class="cls-2" cx="44.17" cy="106.25" rx="39.89" ry="14.61"/>
        <g id="O5zN7b">
          <path class="cls-1" d="M47.2,0c22.82,1.93,40.1,24.06,34,46.72-3.38,12.55-17.38,34.96-25.02,46.19-3.8,5.59-7.78,11.16-12.08,16.36-11.14-14.53-32.38-45.81-36.89-62.55C1.11,24.05,18.39,1.96,41.21,0h5.99ZM42.82,27.37c-4.04.4-8.45,4.25-9.3,8.23-2.24,10.46,9.39,17.61,17.43,11.44,8.41-6.45,3.42-20.81-8.13-19.67Z"/>
        </g>
      </g>
    </g>
  </g>
</svg>